<?xml version="1.0" encoding="UTF-8"?>
<svg width="41px" height="60px" viewBox="0 0 41 60" version="1.1" xmlns="http://www.w3.org/2000/svg" xmlns:xlink="http://www.w3.org/1999/xlink">
    <!-- Generator: Sketch 51.3 (57544) - http://www.bohemiancoding.com/sketch -->
    <title>Combined Shape</title>
    <desc>Created with Sketch.</desc>
    <defs></defs>
    <g id="Page-1" stroke="none" stroke-width="1" fill="none" fill-rule="evenodd">
        <g id="Desktop-Copy-2" transform="translate(-700.000000, -50.000000)" fill="#000000">
            <g id="Group-3-Copy-3" transform="translate(220.000000, 50.000000)">
                <g id="Group-3-Copy">
                    <path d="M499.833136,31.8626102 C498.596133,33.4738909 497.458473,34.7986896 496.420156,35.8370064 C496.464655,36.3709978 496.486904,36.9049813 496.486904,37.4389728 L496.486904,39.0409392 C496.397906,50.521756 494.528964,57.1965494 490.880022,59.0655196 C490.791023,59.1100189 490.346037,59.2768887 489.54505,59.5661341 C488.744063,59.8553795 487.698345,60 486.407866,60 C485.473381,60 484.449912,59.8665041 483.33743,59.5995084 C482.936936,59.5105098 482.558698,59.3770139 482.202704,59.1990168 C481.84671,59.0210196 481.535219,58.7540279 481.268223,58.3980336 C480.86773,57.99754 480.567364,57.5080551 480.367117,56.9295643 C480.166871,56.3510736 480.044499,55.7280929 480,55.0606035 C480,53.5476277 480.422737,52.145921 481.268223,50.8554416 C482.469704,48.9419722 483.927034,47.0841547 485.640257,45.2819334 C487.353479,43.4797122 489.144549,41.644144 491.013519,39.7751738 C491.058018,39.5971767 491.080268,39.3524343 491.080268,39.0409392 C491.080268,36.9494726 491.035769,34.9136606 490.946771,32.9334422 C490.857772,30.9532238 490.75765,29.2066529 490.646402,27.693677 C490.535154,26.1807012 490.423907,24.956989 490.312659,24.022504 L490.145787,22.6207833 C490.056789,22.264789 490.190285,22.0867945 490.546279,22.0867945 C490.590778,22.0867945 490.779897,22.0645452 491.113642,22.0200459 C491.447387,21.9755466 491.847874,21.9421727 492.315117,21.919923 C492.782359,21.8976734 493.282969,21.8976734 493.81696,21.919923 C494.350952,21.9421727 494.818187,21.9977959 495.218681,22.0867945 C495.396678,22.1757931 495.507925,22.309289 495.552424,22.4872861 L495.652547,23.4551408 C495.719296,24.1003806 495.808293,24.9681037 495.919541,26.0583363 C496.03079,27.1485689 496.130912,28.4279043 496.21991,29.8963809 C496.308909,31.3648574 496.375657,32.9223092 496.420156,34.5687829 C497.280475,33.649131 498.441776,32.2347891 499.904058,30.3257573 L499.833136,31.8626102 Z M486.007374,58.1977878 C487.52035,57.4412998 488.699563,55.6168563 489.54505,52.7244025 C490.390536,49.8319486 490.880021,45.9605685 491.013519,41.1101459 C489.278047,42.8011189 487.631598,44.4920665 486.074123,46.1830396 C484.516648,47.8740126 483.181689,49.6094588 482.069207,51.3894304 C481.312719,52.5909113 480.95673,53.7923741 481.001229,54.9938549 C481.001229,56.1063372 481.312719,57.0408082 481.935709,57.7972962 C482.158206,58.0197926 482.402948,58.1977871 482.669944,58.331285 C482.803442,58.4202836 482.948062,58.4759068 483.10381,58.4981565 C483.259557,58.5204061 483.404178,58.5760294 483.537676,58.665028 C484.249665,58.7985258 485.072889,58.6427807 486.007374,58.1977878 Z M492.348491,14.0102138 C491.592003,13.9212152 491.013521,13.4651043 490.613028,12.6418675 C490.212534,11.8186306 490.079038,10.8730349 490.212536,9.8050519 C490.346034,8.73706894 490.713147,7.85822115 491.313888,7.16848216 C491.914628,6.47874316 492.593232,6.17837746 493.34972,6.26737604 C494.106208,6.35637462 494.68469,6.8124855 495.085184,7.63572237 C495.485677,8.45895923 495.619173,9.40455496 495.485675,10.4725379 C495.352178,11.5405209 494.985064,12.4193687 494.384324,13.1091077 C493.783583,13.7988467 493.104979,14.0992124 492.348491,14.0102138 Z M520.316155,28.2346583 C520.449653,28.2791576 520.53865,28.3681548 520.58315,28.5016527 C520.627649,28.6351506 520.6054,28.7463971 520.516401,28.8353957 C517.045456,36.2222778 513.930553,41.6066112 511.171597,44.9885572 C510.682105,45.6115473 510.19262,46.1566554 509.703128,46.6238979 C509.213635,47.0911405 508.72415,47.5027527 508.234658,47.8587471 L508.16791,47.9254957 C507.055427,48.6819836 506.054208,49.0602219 505.164223,49.0602219 C505.075224,49.0602219 505.019601,49.0490972 504.997351,49.0268476 C504.975102,49.0045979 504.919478,48.9934733 504.83048,48.9934733 C504.16299,48.948974 503.573384,48.7042316 503.061642,48.2592387 C502.5499,47.8142458 502.116038,47.2913869 501.760044,46.6906465 C501.40405,46.0899061 501.114809,45.4669254 500.892312,44.8216857 C500.669816,44.176446 500.491821,43.5868392 500.358323,43.0528478 C500.135827,42.1183627 499.980082,40.9391492 499.891083,39.5151719 C499.802085,38.0911946 499.757586,36.5003689 499.757586,34.7426469 C499.757586,32.984925 499.824334,31.1159828 499.957832,29.1357644 C500.09133,27.155546 500.269324,25.186482 500.491821,23.2285132 C500.669818,21.8490352 500.903435,20.2137109 501.192681,18.322491 C501.481926,16.4312712 501.871289,14.5178304 502.360781,12.5821113 C502.850274,10.6463922 503.451005,8.79969938 504.162994,7.04197743 C504.874982,5.28425547 505.698207,3.80467628 506.632692,2.60319545 C507.967671,0.867723138 509.480624,0 511.171597,0 C512.729072,0 513.77479,0.53398347 514.308781,1.60196643 C515.64376,3.9604288 514.531294,8.81077865 510.971351,16.1531615 C510.348361,17.3991416 509.736505,18.6006044 509.135764,19.757586 C508.535024,20.9145675 507.978791,21.9380358 507.467049,22.8280216 C506.955308,23.7180074 506.510321,24.474484 506.132077,25.097474 C505.753833,25.7204641 505.520216,26.1209517 505.431217,26.2989489 C505.164221,29.6363956 505.064099,32.6400526 505.130848,35.31001 C505.197597,37.9799674 505.386716,40.0046548 505.698211,41.3841327 C506.276702,44.0985894 507.033179,45.9230329 507.967664,46.857518 C508.368158,46.546023 508.768645,46.1789094 509.169139,45.7561661 C509.569632,45.3334229 509.992369,44.877312 510.437362,44.3878198 C511.81684,42.7413461 513.27417,40.5831629 514.809396,37.9132055 C516.344621,35.2432481 517.979945,32.0838459 519.715418,28.4349041 C519.804416,28.1234091 520.00466,28.0566611 520.316155,28.2346583 Z M506.098703,20.4918206 C506.009704,21.1148106 505.931832,21.715542 505.865083,22.2940328 C505.798334,22.8725236 505.720461,23.473255 505.631463,24.096245 C506.209954,23.2062592 506.899682,22.0159211 507.700669,20.5251949 C508.501657,19.0344687 509.302632,17.4436429 510.103619,15.7526699 C511.171602,13.5722047 511.983702,11.6921379 512.539943,10.1124131 C513.096184,8.53268829 513.485547,7.20885427 513.708044,6.14087131 C513.93054,5.07288835 513.997288,4.21628987 513.908289,3.57105016 C513.819291,2.92581046 513.685795,2.42520096 513.507798,2.06920664 C513.3743,1.84671019 513.196305,1.80221156 512.973809,1.93570943 C511.416334,3.22618884 510.036877,5.49561859 508.835396,8.74406676 C508.256905,10.3015419 507.734046,12.0703621 507.266804,14.0505806 C506.799561,16.030799 506.410198,18.1778575 506.098703,20.4918206 Z" id="Combined-Shape"></path>
                </g>
            </g>
        </g>
    </g>
</svg>