<?xml version="1.0" encoding="UTF-8"?>
<svg width="30px" height="24px" viewBox="0 0 30 24" version="1.1" xmlns="http://www.w3.org/2000/svg" xmlns:xlink="http://www.w3.org/1999/xlink">
    <!-- Generator: Sketch 51.3 (57544) - http://www.bohemiancoding.com/sketch -->
    <title>mail</title>
    <desc>Created with Sketch.</desc>
    <defs></defs>
    <g id="Mockups" stroke="none" stroke-width="1" fill="none" fill-rule="evenodd">
        <g id="mail" fill="#FFFFFF" fill-rule="nonzero">
            <path d="M0.842819167,1.85882313 C4.89815714,5.40935668 12.0140143,11.6558281 14.1054537,13.6034877 C14.3862168,13.8663576 14.6873517,14 14.9999711,14 C15.3119557,14 15.6125713,13.8676105 15.8926995,13.6059935 C17.985928,11.6564247 25.1017851,5.40935668 29.1571808,1.85882313 C29.4096656,1.63819378 29.4481587,1.25039206 29.243747,0.980661053 C28.771211,0.357374199 28.0666775,0 27.3115894,0 L2.68835287,0 C1.93332246,0 1.22873129,0.357374199 0.756252966,0.980720715 C0.551841309,1.25039206 0.590334413,1.63819378 0.842819167,1.85882313 Z" id="Shape"></path>
            <path d="M29.6374805,5.05875353 C29.4159375,4.95476969 29.1553125,4.99104587 28.9709766,5.14985755 C24.4048828,9.05291445 18.5772656,14.0558367 16.74375,15.7217641 C15.714668,16.6584458 14.2864453,16.6584458 13.2549609,15.7205234 C11.300625,13.9449994 4.75640625,8.33530782 1.02902344,5.14979847 C0.843457031,4.99098679 0.582246094,4.95595133 0.362519531,5.05869445 C0.141621094,5.16214655 0,5.38494373 0,5.63048738 L0,21.47916 C0,22.8694712 1.12119141,24 2.50001953,24 L27.5000391,24 C28.8788086,24 30,22.8694712 30,21.47916 L30,5.63048738 C30,5.38494373 29.8583789,5.16155573 29.6374805,5.05875353 Z" id="Shape"></path>
        </g>
    </g>
</svg>